<?xml version="1.0" standalone="no"?>
<!DOCTYPE svg PUBLIC "-//W3C//DTD SVG 20010904//EN"
 "http://www.w3.org/TR/2001/REC-SVG-20010904/DTD/svg10.dtd">
<svg version="1.0" xmlns="http://www.w3.org/2000/svg"
 width="640.000000pt" height="240.000000pt" viewBox="0 0 640.000000 240.000000"
 preserveAspectRatio="xMidYMid meet">

<g transform="translate(0.000000,240.000000) scale(0.100000,-0.100000)"
fill="#000000" stroke="none">
<path d="M3400 1822 c-19 -2 -39 -7 -43 -11 -4 -4 -24 -223 -43 -486 -30 -396
-34 -479 -22 -486 25 -16 135 -10 153 8 21 20 16 111 -9 193 -21 70 -22 216
-2 293 9 31 28 81 42 109 23 46 28 72 37 205 6 94 7 157 1 162 -12 11 -70 18
-114 13z"/>
<path d="M5050 1822 c-19 -2 -38 -7 -42 -10 -4 -4 -23 -223 -43 -486 -29 -388
-33 -481 -23 -487 21 -14 146 -11 155 4 14 22 81 951 69 963 -13 14 -67 21
-116 16z"/>
<path d="M5770 1822 c-19 -2 -39 -7 -43 -11 -10 -10 -81 -947 -73 -967 7 -18
116 -20 134 -2 7 7 12 27 12 45 0 40 5 41 36 4 60 -72 191 -93 290 -47 115 54
184 199 184 389 0 138 -49 239 -134 278 -82 37 -210 17 -273 -43 -13 -12 -25
-19 -28 -16 -4 3 0 83 6 177 8 106 9 174 3 180 -12 11 -70 18 -114 13z m309
-467 c54 -46 65 -191 22 -290 -49 -111 -163 -127 -235 -32 -25 32 -25 37 -19
137 6 97 8 105 37 138 67 76 139 93 195 47z"/>
<path d="M5382 1790 c-27 -11 -42 -47 -42 -100 0 -56 19 -70 95 -70 57 0 66 3
84 26 30 38 29 117 -1 138 -24 17 -99 20 -136 6z"/>
<path d="M2099 1683 c-18 -4 -29 -50 -29 -120 l0 -43 -45 0 c-55 0 -67 -18
-63 -93 l3 -52 45 -3 46 -3 -14 -186 c-16 -217 -12 -261 29 -308 40 -45 85
-59 176 -53 102 7 119 27 114 135 -1 20 -5 21 -56 16 -45 -5 -59 -2 -76 13
-20 18 -21 25 -15 139 3 66 9 148 13 183 l6 62 73 0 c87 0 97 10 92 93 l-3 52
-77 3 -76 3 5 78 c5 76 5 78 -18 84 -26 7 -104 7 -130 0z"/>
<path d="M4533 1680 c-19 -8 -23 -17 -23 -53 0 -25 -3 -59 -6 -76 -6 -28 -10
-31 -41 -31 -19 0 -33 -3 -31 -7 2 -5 20 -41 40 -82 48 -96 62 -164 56 -281
-4 -71 -11 -111 -30 -157 -24 -60 -25 -64 -9 -95 32 -66 149 -96 254 -67 44
12 57 36 57 104 l0 44 -63 -6 c-95 -8 -100 4 -86 210 14 203 7 187 87 187 37
0 73 4 81 9 19 12 27 106 11 126 -9 11 -32 15 -83 15 l-70 0 6 75 c6 67 5 76
-12 85 -24 12 -107 12 -138 0z"/>
<path d="M3605 1548 l-50 -53 53 50 c28 27 52 51 52 52 0 8 -9 -1 -55 -49z"/>
<path d="M4325 1550 c27 -27 51 -50 54 -50 3 0 -17 23 -44 50 -27 28 -51 50
-54 50 -3 0 17 -22 44 -50z"/>
<path d="M411 1509 c-25 -11 -65 -36 -89 -56 l-44 -36 7 43 c5 31 4 45 -6 51
-18 11 -110 11 -127 1 -19 -12 -67 -663 -50 -674 21 -13 144 -9 155 5 6 6 18
109 26 227 l16 215 46 42 c51 47 93 60 135 43 25 -10 36 -27 53 -82 3 -9 -1
-109 -10 -222 -8 -113 -13 -212 -10 -221 5 -11 22 -15 74 -15 37 0 74 4 81 9
10 6 18 68 29 222 l16 214 36 38 c66 71 120 84 168 43 24 -21 28 -32 30 -92 2
-38 -3 -145 -10 -239 -9 -111 -11 -174 -4 -182 13 -18 141 -17 155 0 6 7 19
123 28 258 18 260 16 288 -26 357 -30 49 -96 75 -174 70 -71 -5 -117 -25 -177
-76 -25 -22 -44 -32 -46 -25 -29 87 -178 130 -282 82z"/>
<path d="M1465 1516 c-124 -32 -145 -50 -145 -124 0 -54 0 -54 28 -49 15 3 61
18 102 32 57 21 88 26 128 23 73 -6 96 -30 97 -100 l0 -53 -100 -8 c-121 -9
-188 -27 -241 -66 -88 -63 -108 -202 -42 -286 52 -67 195 -87 293 -41 28 12
56 30 64 39 20 25 29 21 27 -15 l-1 -33 60 -3 c33 -1 65 1 71 5 8 5 18 100 30
263 19 283 16 320 -35 371 -54 54 -215 75 -336 45z m196 -446 c-2 -45 -7 -59
-29 -78 -64 -55 -134 -66 -178 -29 -22 19 -27 32 -26 62 3 71 61 105 177 102
l59 -2 -3 -55z"/>
<path d="M2814 1506 c-28 -13 -67 -38 -87 -56 l-37 -32 0 45 c0 32 -5 47 -16
51 -28 11 -111 6 -122 -6 -13 -16 -79 -914 -68 -925 12 -12 144 -9 156 3 7 7
16 77 22 160 6 82 12 151 14 153 2 2 20 -11 40 -28 48 -42 73 -51 149 -51 157
0 259 120 287 337 17 136 -12 262 -74 320 -61 57 -176 70 -264 29z m105 -142
c78 -55 65 -297 -20 -369 -23 -19 -42 -25 -76 -25 -41 0 -50 5 -91 45 l-45 45
7 107 c8 119 17 137 88 186 47 31 101 36 137 11z"/>
<path d="M5358 1513 c-21 -5 -23 -16 -49 -377 -17 -239 -18 -290 -7 -297 20
-13 132 -11 150 4 22 18 68 655 47 668 -14 9 -110 10 -141 2z"/>
<path d="M3967 1213 c-9 -2 -15 -8 -12 -13 3 -5 -5 -16 -17 -24 -12 -9 -18
-16 -12 -16 5 0 15 5 21 11 9 9 19 8 40 -6 l28 -18 -19 21 c-19 22 -19 22 7
22 15 0 27 4 27 9 0 4 -12 6 -26 3 -19 -3 -25 -1 -20 7 4 6 6 10 4 10 -2 -1
-11 -3 -21 -6z"/>
<path d="M4058 1213 c7 -3 16 -2 19 1 4 3 -2 6 -13 5 -11 0 -14 -3 -6 -6z"/>
<path d="M4309 893 c-13 -16 -12 -17 4 -4 16 13 21 21 13 21 -2 0 -10 -8 -17
-17z"/>
<path d="M3565 870 c10 -11 20 -20 23 -20 3 0 -3 9 -13 20 -10 11 -20 20 -23
20 -3 0 3 -9 13 -20z"/>
<path d="M4364 868 l-19 -23 23 19 c21 18 27 26 19 26 -2 0 -12 -10 -23 -22z"/>
<path d="M3645 790 c10 -11 20 -20 23 -20 3 0 -3 9 -13 20 -10 11 -20 20 -23
20 -3 0 3 -9 13 -20z"/>
<path d="M4284 788 l-19 -23 23 19 c21 18 27 26 19 26 -2 0 -12 -10 -23 -22z"/>
</g>
</svg>
